# xmcd
#
# Track frame offsets: 
#        150
#        11565
#        22345
#        35778
#        47228
#        59885
#        76023
#        91810
#        105889
#        121911
#        137033
#        155542
#        177287
#        196000
#        211293
#        226909
#        240382
#        273291
#        286424
#        300317
#
# Disc length: 4369 seconds
#
# Revision: 0
# Processed by: cddbd v1.5.2PL0 Copyright (c) Steve Scherf et al.
# Submitted via: ExactAudioCopy v1.1
#
DISCID=07110f14
DTITLE=Various Artist - (40 Keer Blijven) Pompen III - CD 2
DYEAR=2018
DGENRE=House
TTITLE0=Kraantje Pappie - Pompen
TTITLE1=Zany and DV8 - Vreet Spirit
TTITLE2=Partyfriex Feat. Schorre Chef - Ik Moet Zuipen! (Hardstyle Rem
TTITLE2=ix)
TTITLE3=Jebroer Feat. Stepherd, Skinto and Jayh - Banaan (Ruthless Remix
TTITLE3=)
TTITLE4=Justin, Koning Bij - Zoemetje (Ik Ben Een Bij...) (Gunther D R
TTITLE4=emix)
TTITLE5=DJ Kicken Vs. Mc-Q - Ain't No Party (Like An Alcoholic Party)
TTITLE6=DJ Norman Vs. Darkraver - Kom Tie Dan Hè!
TTITLE7=Showtek and Bassjackers - Hey!
TTITLE8=Bassjackers Vs. D'Angello and Francis - All Aboard (Dimitri Vega
TTITLE8=s and Like Mike Edit)
TTITLE9=Solid Solution - The Logical Song
TTITLE10=Da Boy Tommy - Candyman
TTITLE11=Danger Hardcore Team - Alone
TTITLE12=Lost Frequencies and Netsky - Here With You (Coone Remix)
TTITLE13=Mandy - Raggadrop
TTITLE14=Dirtcaps X Jebroer - Miljoenen (Beatcrooks Remix)
TTITLE15=DJ Paul Elstak Feat. Jantine - Demons
TTITLE16=Technoboy - Ti Sento
TTITLE17=Outsiders and Jebroer - Hatsikidee
TTITLE18=Juggernaut - Ruffneck Rules Da Artcore Scene
TTITLE19=Neophyte and Evil Activities - Alles Kapot
EXTD=
EXTT0=
EXTT1=
EXTT2=
EXTT3=
EXTT4=
EXTT5=
EXTT6=
EXTT7=
EXTT8=
EXTT9=
EXTT10=
EXTT11=
EXTT12=
EXTT13=
EXTT14=
EXTT15=
EXTT16=
EXTT17=
EXTT18=
EXTT19=
PLAYORDER=
